<svg xmlns="http://www.w3.org/2000/svg" width="73.323" height="83.381" viewBox="0 0 73.323 83.381">
  <path id="Icon_simple-shopify" data-name="Icon simple-shopify" d="M50.425,83.308,75.5,77.885s-9.047-61.191-9.12-61.6a.767.767,0,0,0-.733-.667c-.337,0-6.7-.472-6.7-.472s-4.43-4.426-5-4.9a1.333,1.333,0,0,0-.42-.257l-3.175,73.32h.08Zm-12.6-44.032A14.834,14.834,0,0,0,31.661,37.8c-5.027,0-5.225,3.148-5.225,3.964,0,4.28,11.256,5.958,11.256,16.082,0,7.973-5,13.063-11.833,13.063a16.294,16.294,0,0,1-12.3-5.09L15.8,58.575s4.325,3.7,7.921,3.7a3.28,3.28,0,0,0,3.387-3.238c0-5.625-9.221-5.885-9.221-15.144-.118-7.772,5.458-15.342,16.77-15.342,4.367,0,6.514,1.254,6.514,1.254l-3.283,9.432-.069.035ZM35.948,2.884a2.333,2.333,0,0,1,1.407.469c-3.419,1.616-7.171,5.694-8.713,13.869-2.279.74-4.492,1.407-6.563,2.008,1.8-6.2,6.16-16.311,13.869-16.311Zm4.291,10.245V13.6c-2.62.806-5.5,1.682-8.317,2.557,1.619-6.174,4.631-9.189,7.244-10.322A20.44,20.44,0,0,1,40.239,13.129Zm1.873-7.761c2.411.257,3.964,3.012,4.965,6.1-1.212.4-2.554.8-4.023,1.272v-.876a19.756,19.756,0,0,0-.942-6.5ZM52.506,9.846c-.069,0-.208.073-.271.073s-1,.261-2.481.73c-1.47-4.284-4.086-8.234-8.713-8.234h-.4A5.716,5.716,0,0,0,36.278,0C25.487,0,20.332,13.47,18.716,20.31c-4.148,1.268-7.167,2.21-7.5,2.342-2.345.74-2.411.806-2.682,3.023-.261,1.605-6.358,48.858-6.358,48.858l47.114,8.849L52.506,9.846Z" transform="translate(-2.172)" fill="#fff"/>
</svg>
