<svg xmlns="http://www.w3.org/2000/svg" xmlns:xlink="http://www.w3.org/1999/xlink" width="358.47" height="312.217" viewBox="0 0 358.47 312.217">
  <defs>
    <filter id="Icon_simple-shopify" x="0" y="0" width="358.47" height="312.217" filterUnits="userSpaceOnUse">
      <feOffset dy="3" input="SourceAlpha"/>
      <feGaussianBlur stdDeviation="3" result="blur"/>
      <feFlood flood-opacity="0.161"/>
      <feComposite operator="in" in2="blur"/>
      <feComposite in="SourceGraphic"/>
    </filter>
  </defs>
  <g id="Group_20" data-name="Group 20" transform="translate(-519.255 -2019.737)">
    <path id="Icon_simple-shopify-2" data-name="Icon simple-shopify" d="M228.961,297.539,346.789,278.17s-42.52-218.548-42.863-220a3.405,3.405,0,0,0-3.445-2.382c-1.584,0-31.5-1.688-31.5-1.688s-20.819-15.808-23.5-17.508a6.859,6.859,0,0,0-1.976-.918L228.586,297.539h.376ZM169.737,140.276a87.446,87.446,0,0,0-28.967-5.261c-23.628,0-24.558,11.242-24.558,14.158,0,15.287,52.9,21.28,52.9,57.438,0,28.477-23.513,46.655-55.616,46.655-38.438,0-57.8-18.178-57.8-18.178L66.246,209.2s20.329,13.227,37.229,13.227c11.022,0,15.92-6.763,15.92-11.565,0-20.089-43.336-21.02-43.336-54.088-.555-27.757,25.652-54.8,78.819-54.8,20.525,0,30.616,4.479,30.616,4.479l-15.431,33.689-.327.124ZM160.92,10.3a13.415,13.415,0,0,1,6.613,1.675c-16.067,5.77-33.7,20.337-40.952,49.534-10.712,2.643-21.113,5.025-30.845,7.172,8.475-22.149,28.951-58.257,65.184-58.257Zm20.166,36.592v1.675c-12.312,2.879-25.848,6.006-39.091,9.133,7.609-22.05,21.766-32.82,34.045-36.865C179.191,27.05,181.085,35.426,181.085,46.891Zm8.8-27.72c11.332.918,18.631,10.758,23.334,21.777-5.7,1.415-12,2.866-18.909,4.541V42.362c0-9.331-1.568-17.012-4.425-23.216Zm48.855,15.994c-.327,0-.98.261-1.274.261s-4.719.931-11.659,2.606c-6.907-15.3-19.2-29.408-40.952-29.408H182.98A30.017,30.017,0,0,0,162.471,0C111.754,0,87.522,48.107,79.929,72.539c-19.5,4.529-33.686,7.892-35.27,8.363-11.022,2.643-11.332,2.879-12.606,10.8C30.829,97.43,2.172,266.2,2.172,266.2l221.433,31.6L238.742,35.165Z" transform="translate(525.833 2020.942)" fill="#0089fe"/>
    <g transform="matrix(1, 0, 0, 1, 519.25, 2019.74)" filter="url(#Icon_simple-shopify)">
      <path id="Icon_simple-shopify-3" data-name="Icon simple-shopify" d="M226.232,293.959l116.41-19.136S300.634,58.9,300.3,57.47a3.364,3.364,0,0,0-3.4-2.354c-1.565,0-31.119-1.667-31.119-1.667s-20.569-15.618-23.214-17.3a6.777,6.777,0,0,0-1.952-.907L225.861,293.959h.371ZM167.721,138.588a86.394,86.394,0,0,0-28.619-5.2c-23.343,0-24.263,11.107-24.263,13.988,0,15.1,52.268,21.024,52.268,56.747,0,28.134-23.23,46.094-54.946,46.094-37.975,0-57.108-17.959-57.108-17.959l10.421-25.572s20.085,13.068,36.781,13.068c10.889,0,15.729-6.681,15.729-11.425,0-19.847-42.815-20.767-42.815-53.437-.548-27.423,25.344-54.136,77.87-54.136,20.278,0,30.248,4.426,30.248,4.426l-15.245,33.283-.323.123ZM159.009,10.175a13.253,13.253,0,0,1,6.534,1.655c-15.874,5.7-33.3,20.093-40.46,48.938-10.583,2.611-20.859,4.965-30.474,7.086,8.373-21.882,28.6-57.556,64.4-57.556Zm19.923,36.152v1.655C166.769,50.826,153.4,53.915,140.312,57c7.518-21.784,21.5-32.425,33.636-36.422C177.061,26.725,178.932,35,178.932,46.327Zm8.7-27.387c11.2.907,18.407,10.629,23.053,21.515-5.63,1.4-11.857,2.832-18.681,4.487V41.852c0-9.219-1.549-16.807-4.372-22.937Zm48.268,15.8c-.323,0-.968.257-1.258.257s-4.662.919-11.518,2.574C216.295,22.459,204.147,8.52,182.659,8.52H180.8A29.656,29.656,0,0,0,160.542,0C110.435,0,86.5,47.528,78.994,71.666c-19.262,4.475-33.281,7.8-34.846,8.263-10.889,2.611-11.2,2.844-12.454,10.665-1.21,5.664-29.522,172.4-29.522,172.4l218.769,31.224L235.9,34.742Z" transform="translate(6.83 6)" fill="#1f4f79"/>
    </g>
  </g>
</svg>
