<svg xmlns="http://www.w3.org/2000/svg" xmlns:xlink="http://www.w3.org/1999/xlink" width="268.594" height="217.293" viewBox="0 0 268.594 217.293">
  <defs>
    <filter id="Icon_awesome-squarespace" x="0" y="0" width="268.594" height="217.293" filterUnits="userSpaceOnUse">
      <feOffset dy="3" input="SourceAlpha"/>
      <feGaussianBlur stdDeviation="3" result="blur"/>
      <feFlood flood-opacity="0.161"/>
      <feComposite operator="in" in2="blur"/>
      <feComposite in="SourceGraphic"/>
    </filter>
  </defs>
  <g id="Group_21" data-name="Group 21" transform="translate(-1042.19 -2081.771)">
    <path id="Icon_awesome-squarespace-2" data-name="Icon awesome-squarespace" d="M92.205,147.812a12.239,12.239,0,0,0,17.309,17.309l77.866-77.866a24.472,24.472,0,0,1,34.608,34.608l-76.365,76.36a24.458,24.458,0,0,0,34.589.02l.02-.02,59.076-59.071a48.944,48.944,0,0,0-69.217-69.217L92.205,147.812ZM213.344,95.894a12.232,12.232,0,0,0-17.3,0l-77.876,77.866a24.463,24.463,0,0,1-34.589.025l-.025-.025a12.235,12.235,0,0,0-17.3,0l0,0a12.237,12.237,0,0,0-.01,17.3l.01.01a48.955,48.955,0,0,0,69.217,0L213.34,113.2a12.236,12.236,0,0,0,0-17.3ZM83.556,139.157l77.866-77.866a12.234,12.234,0,0,0-17.294-17.309L66.247,121.848a24.467,24.467,0,0,1-34.6,0l0,0a24.466,24.466,0,0,1-.015-34.6l.015-.015,76.375-76.375a24.471,24.471,0,0,0-34.6-.01l-.01.01L14.334,69.935a48.947,48.947,0,0,0,69.222,69.222ZM40.293,113.2a12.229,12.229,0,0,0,17.294,0l77.881-77.871a24.466,24.466,0,0,1,34.6-.01l.01.01a12.236,12.236,0,0,0,17.3-17.3,48.937,48.937,0,0,0-69.217,0L40.293,95.894a12.236,12.236,0,0,0,0,17.3h0Z" transform="translate(1056.928 2081.658)" fill="#0089fe"/>
    <g transform="matrix(1, 0, 0, 1, 1042.19, 2081.77)" filter="url(#Icon_awesome-squarespace)">
      <path id="Icon_awesome-squarespace-3" data-name="Icon awesome-squarespace" d="M91.1,146.077a12.092,12.092,0,0,0,17.1,17.1l76.929-76.929a24.177,24.177,0,0,1,34.192,34.192l-75.446,75.441a24.164,24.164,0,0,0,34.172.02l.02-.02,58.365-58.36a48.355,48.355,0,1,0-68.384-68.384L91.1,146.077ZM210.777,94.785a12.085,12.085,0,0,0-17.1,0l-76.939,76.929a24.168,24.168,0,0,1-34.172.024l-.024-.024a12.088,12.088,0,0,0-17.091,0l0,0a12.089,12.089,0,0,0-.01,17.1l.01.01a48.366,48.366,0,0,0,68.384,0l76.939-76.939a12.089,12.089,0,0,0,0-17.1ZM82.55,137.527,159.48,60.6a12.087,12.087,0,0,0-17.086-17.1L65.449,120.426a24.173,24.173,0,0,1-34.187,0l0,0a24.171,24.171,0,0,1-.015-34.182l.015-.015,75.456-75.456a24.177,24.177,0,0,0-34.187-.01l-.01.01L14.161,69.138A48.358,48.358,0,0,0,82.55,137.527ZM39.808,111.881a12.082,12.082,0,0,0,17.086,0l76.944-76.934a24.171,24.171,0,0,1,34.182-.01l.01.01a12.089,12.089,0,0,0,17.1-17.1,48.348,48.348,0,0,0-68.384,0L39.808,94.785a12.089,12.089,0,0,0,0,17.1h0Z" transform="translate(9 2.32)" fill="#1f4f79"/>
    </g>
  </g>
</svg>
