<svg xmlns="http://www.w3.org/2000/svg" width="83.382" height="66.312" viewBox="0 0 83.382 66.312">
  <path id="Icon_awesome-squarespace" data-name="Icon awesome-squarespace" d="M30.311,51.064A4.024,4.024,0,0,0,36,56.754l25.6-25.6A8.045,8.045,0,0,1,72.975,42.534l-25.1,25.1a8.04,8.04,0,0,0,11.37.007l.007-.007,19.42-19.419A16.089,16.089,0,1,0,55.915,25.464l-25.6,25.6ZM70.133,34a4.021,4.021,0,0,0-5.688,0l-25.6,25.6a8.042,8.042,0,0,1-11.37.008l-.008-.008a4.022,4.022,0,0,0-5.687,0l0,0a4.023,4.023,0,0,0,0,5.688l0,0a16.093,16.093,0,0,0,22.754,0l25.6-25.6a4.023,4.023,0,0,0,0-5.688ZM27.467,48.219l25.6-25.6a4.022,4.022,0,1,0-5.685-5.69l-25.6,25.6a8.043,8.043,0,0,1-11.375,0l0,0a8.043,8.043,0,0,1,0-11.374l0,0L35.507,6.043a8.045,8.045,0,0,0-11.375,0l0,0L4.712,25.464A16.091,16.091,0,0,0,27.467,48.219ZM13.245,39.686a4.02,4.02,0,0,0,5.685,0l25.6-25.6a8.043,8.043,0,0,1,11.374,0l0,0A4.022,4.022,0,0,0,61.6,8.4a16.087,16.087,0,0,0-22.754,0L13.245,34a4.023,4.023,0,0,0,0,5.688h0Z" transform="translate(0 -3.685)" fill="#fff"/>
</svg>
