<svg xmlns="http://www.w3.org/2000/svg" width="104.226" height="40.553" viewBox="0 0 104.226 40.553">
  <path id="Icon_awesome-wix" data-name="Icon awesome-wix" d="M64.063,9.278c0,2.122.339,5.324-4.671,7.138a8.093,8.093,0,0,0-2.6,1.573c0-5.048.769-6.876,2.834-7.957a11.307,11.307,0,0,1,4.435-.754ZM45.2,15.066l-5.576,21.6L34.991,18.989c-1.252-5.21-3.389-7.9-7.887-7.9-4.457,0-6.622,2.635-7.887,7.9L14.579,36.67,9,15.066c-.9-4.351-5.117-6.232-9-5.744L10.678,49.7s3.523.254,5.286-.645c2.316-1.181,3.417-2.091,4.819-7.584,1.249-4.9,4.741-19.283,5.068-20.308.775-2.433,1.806-2.249,2.508,0,.321,1.026,3.819,15.411,5.068,20.308,1.4,5.493,2.5,6.4,4.819,7.584,1.762.9,5.286.645,5.286.645L54.211,9.322C50.234,8.822,46.1,10.776,45.2,15.066Zm18.855.848A6.527,6.527,0,0,1,61.868,17.8c-.979.547-1.918.918-2.926,1.4-2.466,1.182-2.146,2.272-2.146,5.732V49.7a9.185,9.185,0,0,0,4.457-.559c2.269-1.156,2.79-2.272,2.811-7.293V17.375l0,0V15.914ZM90.677,29.607,104.226,9.455s-5.718-.974-8.55,1.6c-2.166,1.971-3.975,4.812-8.823,11.8-.077.119-1.018,1.716-2.128,0-4.77-6.877-6.644-9.818-8.823-11.8-2.832-2.578-8.55-1.6-8.55-1.6L80.9,29.607,67.389,49.7s5.956.752,8.786-1.826c1.871-1.7,2.863-3.317,8.551-11.517,1.109-1.713,2.047-.125,2.128,0,4.788,6.9,6.389,9.455,8.654,11.517,2.832,2.578,8.683,1.826,8.683,1.826Z" transform="translate(0 -9.245)" fill="#fff"/>
</svg>
