<svg xmlns="http://www.w3.org/2000/svg" xmlns:xlink="http://www.w3.org/1999/xlink" width="368.513" height="112.018" viewBox="0 0 368.513 112.018">
  <defs>
    <filter id="Icon_awesome-wix" x="0" y="0" width="368.513" height="112.018" filterUnits="userSpaceOnUse">
      <feOffset dy="3" input="SourceAlpha"/>
      <feGaussianBlur stdDeviation="3" result="blur"/>
      <feFlood flood-opacity="0.161"/>
      <feComposite operator="in" in2="blur"/>
      <feComposite in="SourceGraphic"/>
    </filter>
  </defs>
  <g id="Group_22" data-name="Group 22" transform="translate(-1480.142 -2133.946)">
    <path id="Icon_awesome-wix-2" data-name="Icon awesome-wix" d="M218.069,9.322c0,4.979,1.153,12.493-15.9,16.75a31.051,31.051,0,0,0-8.842,3.692c0-11.847,2.617-16.134,9.646-18.672,5.4-1.953,15.095-1.769,15.095-1.769ZM153.876,22.9,134.895,73.6,119.107,32.11c-4.263-12.225-11.536-18.546-26.847-18.546-15.172,0-22.54,6.183-26.847,18.546L49.625,73.6,30.644,22.9C27.568,12.692,13.227,8.278,0,9.425l36.349,94.747s11.991.6,17.994-1.513c7.883-2.771,11.63-4.907,16.4-17.8C75,73.371,86.883,39.611,88,37.207c2.639-5.709,6.148-5.278,8.537,0,1.092,2.408,13,36.163,17.251,47.654,4.767,12.89,8.52,15.026,16.4,17.8,6,2.109,17.994,1.513,17.994,1.513L184.531,9.425c-13.537-1.173-27.618,3.413-30.655,13.479Zm64.182,1.991a21.272,21.272,0,0,1-7.462,4.422c-3.332,1.284-6.53,2.155-9.962,3.29-8.393,2.774-7.306,5.331-7.306,13.452v58.114s9.174.8,15.173-1.311c7.722-2.713,9.5-5.331,9.568-17.113V28.322l-.011,0Zm90.6,32.131L354.782,9.738s-19.463-2.285-29.1,3.764C318.306,18.127,312.148,24.8,295.645,41.2c-.261.279-3.465,4.028-7.245,0-16.237-16.138-22.617-23.04-30.035-27.695-9.64-6.049-29.1-3.764-29.1-3.764l46.122,47.288-45.994,47.142s20.272,1.766,29.907-4.284c6.369-4,9.745-7.784,29.109-27.026,3.775-4.02,6.968-.294,7.245,0,16.3,16.2,21.747,22.188,29.458,27.026,9.64,6.049,29.558,4.284,29.558,4.284Z" transform="translate(1489.142 2129.198)" fill="#0089fe"/>
    <g transform="matrix(1, 0, 0, 1, 1480.14, 2133.95)" filter="url(#Icon_awesome-wix)">
      <path id="Icon_awesome-wix-3" data-name="Icon awesome-wix" d="M215.445,9.321c0,4.92,1.139,12.342-15.707,16.548A30.678,30.678,0,0,0,191,29.516c0-11.7,2.585-15.94,9.53-18.447,5.34-1.929,14.913-1.748,14.913-1.748ZM152.024,22.739,133.272,72.825l-15.6-40.991c-4.212-12.078-11.4-18.323-26.524-18.323-14.99,0-22.269,6.109-26.524,18.323l-15.6,40.991L30.276,22.739C27.236,12.651,13.068,8.29,0,9.423L35.911,103.03s11.846.589,17.778-1.5c7.788-2.737,11.49-4.848,16.206-17.583C74.1,72.6,85.837,39.246,86.938,36.871c2.607-5.641,6.074-5.214,8.434,0,1.079,2.379,12.843,35.728,17.044,47.081,4.71,12.735,8.418,14.845,16.206,17.583,5.926,2.084,17.778,1.5,17.778,1.5L182.311,9.423c-13.374-1.159-27.285,3.372-30.287,13.316Zm63.41,1.967a21.016,21.016,0,0,1-7.372,4.368c-3.292,1.269-6.452,2.129-9.842,3.251C189.929,35.066,191,37.592,191,45.615V103.03s9.064.789,14.99-1.3c7.629-2.681,9.382-5.267,9.453-16.907V28.093l-.011,0Zm89.512,31.745L350.513,9.732s-19.229-2.258-28.753,3.719c-7.284,4.568-13.369,11.157-29.673,27.361-.257.276-3.423,3.979-7.158,0-16.041-15.944-22.345-22.763-29.673-27.361C245.732,7.475,226.5,9.732,226.5,9.732l45.567,46.719-45.441,46.575s20.029,1.744,29.547-4.232c6.293-3.949,9.628-7.691,28.759-26.7,3.73-3.972,6.884-.291,7.158,0,16.1,16,21.485,21.921,29.1,26.7,9.524,5.977,29.2,4.232,29.2,4.232Z" transform="translate(9 -3.25)" fill="#1f4f79"/>
    </g>
  </g>
</svg>

