<svg xmlns="http://www.w3.org/2000/svg" width="83.381" height="83.381" viewBox="0 0 83.381 83.381">
  <path id="Icon_simple-wordpress" data-name="Icon simple-wordpress" d="M74.588,23.711A37.514,37.514,0,0,1,60.535,74.087l11.448-33.1a35.443,35.443,0,0,0,2.849-13.424,29.42,29.42,0,0,0-.243-3.856m-27.728.365c2.248-.1,4.28-.365,4.28-.365a1.567,1.567,0,0,0-.233-3.123s-6.1.469-10.006.469c-3.7,0-9.9-.521-9.9-.521-2.032-.1-2.3,2.97-.261,3.075,0,0,1.876.212,3.908.313l5.837,16-8.234,24.6L18.6,23.972c2.255-.1,4.287-.347,4.287-.347a1.561,1.561,0,0,0-.226-3.113s-6.066.479-9.985.479c-.695,0-1.522-.028-2.4-.052A38.017,38.017,0,0,1,41.691,4.221,37.319,37.319,0,0,1,67,14.064c-.16-.01-.316-.031-.49-.031a6.489,6.489,0,0,0-6.3,6.65c0,3.092,1.782,5.708,3.683,8.793a19.755,19.755,0,0,1,3.092,10.343c0,3.179-1.23,6.928-2.852,12.087L60.406,64.36,46.857,24.024Zm-5.17,55.084A37.51,37.51,0,0,1,31.1,77.638L42.347,44.96,53.864,76.53a5.591,5.591,0,0,0,.271.518,37.512,37.512,0,0,1-12.445,2.116M4.207,41.69A37.289,37.289,0,0,1,7.456,26.439L25.327,75.422A37.5,37.5,0,0,1,4.207,41.69M41.691,0A41.69,41.69,0,1,0,83.381,41.69,41.746,41.746,0,0,0,41.691,0" fill="#fff"/>
</svg>
