<svg xmlns="http://www.w3.org/2000/svg" xmlns:xlink="http://www.w3.org/1999/xlink" width="283.127" height="286.487" viewBox="0 0 283.127 286.487">
  <defs>
    <filter id="Icon_awesome-wordpress-simple" x="0" y="0.254" width="283.127" height="286.233" filterUnits="userSpaceOnUse">
      <feOffset dy="3" input="SourceAlpha"/>
      <feGaussianBlur stdDeviation="3" result="blur"/>
      <feFlood flood-opacity="0.161"/>
      <feComposite operator="in" in2="blur"/>
      <feComposite in="SourceGraphic"/>
    </filter>
  </defs>
  <g id="Group_19" data-name="Group 19" transform="translate(-67.076 -2048.96)">
    <path id="Icon_awesome-wordpress-simple-2" data-name="Icon awesome-wordpress-simple" d="M134.74.562C60.78.562.563,61.431.563,136.313c0,74.827,60.218,135.75,134.178,135.75s134.178-60.923,134.178-135.75C268.918,61.431,208.7.562,134.74.562ZM14.089,136.313A122.419,122.419,0,0,1,24.531,86.665L82.1,246.171A122.283,122.283,0,0,1,14.089,136.313ZM134.74,258.378a118.886,118.886,0,0,1-34.086-4.981l36.2-106.41,37.061,102.8a16.566,16.566,0,0,0,.866,1.7A119.525,119.525,0,0,1,134.74,258.378ZM151.35,79.111c7.25-.383,13.8-1.149,13.8-1.149,6.492-.766,5.735-10.455-.757-10.072,0,0-19.532,1.533-32.138,1.533-11.849,0-31.759-1.533-31.759-1.533-6.492-.383-7.25,9.689-.757,10.072,0,0,6.168.766,12.66,1.149l18.774,52.11-26.4,80.082L60.834,79.111c7.25-.383,13.8-1.149,13.8-1.149,6.492-.766,5.735-10.455-.757-10.072,0,0-19.532,1.533-32.138,1.533-2.272,0-4.923-.055-7.791-.164,21.587-33.116,58.649-55.012,100.8-55.012a119.644,119.644,0,0,1,81.481,32.022,15.111,15.111,0,0,0-1.569-.109c-11.849,0-20.235,10.455-20.235,21.676,0,10.072,5.735,18.556,11.849,28.628,4.6,8.1,9.955,18.556,9.955,33.664,0,10.455-3.95,22.552-9.2,39.466l-12.011,40.67L151.35,79.111Zm44.041,162.681,36.845-107.779c6.871-17.407,9.2-31.31,9.2-43.736a90.871,90.871,0,0,0-.812-12.535,122.959,122.959,0,0,1-45.231,164.05Z" transform="translate(75.769 2048.397)" fill="#0189fe"/>
    <g transform="matrix(1, 0, 0, 1, 67.08, 2048.96)" filter="url(#Icon_awesome-wordpress-simple)">
      <path id="Icon_awesome-wordpress-simple-3" data-name="Icon awesome-wordpress-simple" d="M133.126.562C60.056.562.562,60.7.562,134.679.562,208.605,60.056,268.8,133.126,268.8s132.563-60.19,132.563-134.116C265.689,60.7,206.2.562,133.126.562ZM13.926,134.679a120.946,120.946,0,0,1,10.316-49.05L81.116,243.216A120.811,120.811,0,0,1,13.926,134.679Zm119.2,120.6a117.456,117.456,0,0,1-33.675-4.921l35.76-105.13,36.615,101.561a16.367,16.367,0,0,0,.855,1.676A118.086,118.086,0,0,1,133.126,255.276Zm16.41-177.109c7.163-.379,13.631-1.136,13.631-1.136,6.414-.757,5.666-10.329-.748-9.951,0,0-19.3,1.514-31.751,1.514-11.706,0-31.377-1.514-31.377-1.514-6.414-.379-7.163,9.572-.748,9.951,0,0,6.094.757,12.508,1.136L129.6,129.65l-26.085,79.118-43.4-130.6c7.163-.379,13.631-1.136,13.631-1.136,6.414-.757,5.666-10.329-.748-9.951,0,0-19.3,1.514-31.751,1.514-2.245,0-4.864-.054-7.7-.162,21.328-32.718,57.943-54.35,99.583-54.35a118.2,118.2,0,0,1,80.5,31.636,14.929,14.929,0,0,0-1.55-.108c-11.706,0-19.991,10.329-19.991,21.415,0,9.951,5.666,18.333,11.706,28.283,4.544,8,9.835,18.333,9.835,33.259,0,10.329-3.9,22.281-9.087,38.991L192.672,207.74,149.536,78.166ZM193.047,238.89l36.4-106.482c6.789-17.2,9.087-30.933,9.087-43.209a89.778,89.778,0,0,0-.8-12.384A121.48,121.48,0,0,1,193.047,238.89Z" transform="translate(8.44 5.69)" fill="#1f4f79"/>
    </g>
  </g>
</svg>
